# https://github.com/mikedh/trimesh
mtllib specimen.mtl

o plate
usemtl Material
v 0.05000000 0.07500000 0.00500000
v 0.05000000 0.07500000 0.00500000
v 0.05000000 0.07500000 0.00500000
v 0.05000000 0.07500000 0.00000000
v 0.05000000 0.07500000 0.00000000
v 0.05000000 0.07500000 0.00000000
v 0.05000000 -0.07500000 0.00500000
v 0.05000000 -0.07500000 0.00500000
v 0.05000000 -0.07500000 0.00500000
v 0.05000000 -0.07500000 0.00000000
v 0.05000000 -0.07500000 0.00000000
v 0.05000000 -0.07500000 0.00000000
v -0.05000000 0.07500000 0.00500000
v -0.05000000 0.07500000 0.00500000
v -0.05000000 0.07500000 0.00500000
v -0.05000000 0.07500000 0.00000000
v -0.05000000 0.07500000 0.00000000
v -0.05000000 0.07500000 0.00000000
v -0.05000000 -0.07500000 0.00500000
v -0.05000000 -0.07500000 0.00500000
v -0.05000000 -0.07500000 0.00500000
v -0.05000000 -0.07500000 0.00000000
v -0.05000000 -0.07500000 0.00000000
v -0.05000000 -0.07500000 0.00000000
vt 0.03193100 0.00265600
vt 0.62500000 0.46281500
vt 0.62500000 0.50000000
vt 0.37500000 0.46281500
vt 0.98985100 0.00830000
vt 0.37500000 0.50000000
vt 0.62500000 0.71281500
vt 0.00717800 0.99767600
vt 0.42698000 0.63047800
vt 1.00272300 0.98771600
vt 0.37500000 0.71281500
vt 0.17698000 0.63047800
vt 0.62500000 0.25000000
vt 0.81905900 0.63778200
vt 0.99183200 0.00996000
vt 0.37500000 0.25000000
vt 0.56905900 0.63778200
vt 0.03094100 0.00132800
vt 0.81905900 0.38778200
vt 0.99925700 0.98838000
vt 0.42698000 0.88047800
vt 0.00519800 0.99966800
vt 0.56905900 0.38778200
vt 0.17698000 0.88047800
f 1/1 15/15 20/20
f 12/12 9/9 21/21
f 23/23 19/19 14/14
f 18/18 5/5 10/10
f 4/4 2/2 7/7
f 16/16 13/13 3/3
f 20/20 8/8 1/1
f 21/21 24/24 12/12
f 14/14 17/17 23/23
f 10/10 22/22 18/18
f 7/7 11/11 4/4
f 3/3 6/6 16/16

o pillar
usemtl Material
v 0.00250000 0.07500000 0.00500000
v 0.00250000 0.07500000 0.00500000
v 0.00250000 0.07500000 0.00500000
v -0.00250000 0.07500000 0.00500000
v -0.00250000 0.07500000 0.00500000
v -0.00250000 0.07500000 0.00500000
v 0.00250000 -0.07500000 0.00500000
v 0.00250000 -0.07500000 0.00500000
v 0.00250000 -0.07500000 0.00500000
v -0.00250000 -0.07500000 0.00500000
v -0.00250000 -0.07500000 0.00500000
v -0.00250000 -0.07500000 0.00500000
v 0.00250000 0.07500000 0.10500000
v 0.00250000 0.07500000 0.10500000
v 0.00250000 0.07500000 0.10500000
v -0.00250000 0.07500000 0.10500000
v -0.00250000 0.07500000 0.10500000
v -0.00250000 0.07500000 0.10500000
v 0.00250000 -0.07500000 0.10500000
v 0.00250000 -0.07500000 0.10500000
v 0.00250000 -0.07500000 0.10500000
v -0.00250000 -0.07500000 0.10500000
v -0.00250000 -0.07500000 0.10500000
v -0.00250000 -0.07500000 0.10500000
vt 0.03193100 0.00265600
vt 0.62500000 0.46281500
vt 0.62500000 0.50000000
vt 0.37500000 0.46281500
vt 0.98985100 0.00830000
vt 0.37500000 0.50000000
vt 0.62500000 0.71281500
vt 0.00717800 0.99767600
vt 0.42698000 0.63047800
vt 1.00272300 0.98771600
vt 0.37500000 0.71281500
vt 0.17698000 0.63047800
vt 0.62500000 0.25000000
vt 0.81905900 0.63778200
vt 0.99183200 0.00996000
vt 0.37500000 0.25000000
vt 0.56905900 0.63778200
vt 0.03094100 0.00132800
vt 0.81905900 0.38778200
vt 0.99925700 0.98838000
vt 0.42698000 0.88047800
vt 0.00519800 0.99966800
vt 0.56905900 0.38778200
vt 0.17698000 0.88047800
f 25/25 39/39 44/44
f 36/36 33/33 45/45
f 47/47 43/43 38/38
f 42/42 29/29 34/34
f 28/28 26/26 31/31
f 40/40 37/37 27/27
f 44/44 32/32 25/25
f 45/45 48/48 36/36
f 38/38 41/41 47/47
f 34/34 46/46 42/42
f 31/31 35/35 28/28
f 27/27 30/30 40/40

